<svg id="visual" viewBox="0 0 960 540" width="960" height="540" xmlns="http://www.w3.org/2000/svg" xmlns:xlink="http://www.w3.org/1999/xlink" version="1.1"><rect x="0" y="0" width="960" height="540" fill="#0a0113"></rect><defs><linearGradient id="grad1_0" x1="43.8%" y1="0%" x2="100%" y2="100%"><stop offset="14.444444444444446%" stop-color="#2a0748" stop-opacity="1"></stop><stop offset="85.55555555555554%" stop-color="#2a0748" stop-opacity="1"></stop></linearGradient></defs><defs><linearGradient id="grad1_1" x1="43.8%" y1="0%" x2="100%" y2="100%"><stop offset="14.444444444444446%" stop-color="#2a0748" stop-opacity="1"></stop><stop offset="85.55555555555554%" stop-color="#210a3b" stop-opacity="1"></stop></linearGradient></defs><defs><linearGradient id="grad1_2" x1="43.8%" y1="0%" x2="100%" y2="100%"><stop offset="14.444444444444446%" stop-color="#1a092d" stop-opacity="1"></stop><stop offset="85.55555555555554%" stop-color="#210a3b" stop-opacity="1"></stop></linearGradient></defs><defs><linearGradient id="grad1_3" x1="43.8%" y1="0%" x2="100%" y2="100%"><stop offset="14.444444444444446%" stop-color="#1a092d" stop-opacity="1"></stop><stop offset="85.55555555555554%" stop-color="#150520" stop-opacity="1"></stop></linearGradient></defs><defs><linearGradient id="grad1_4" x1="43.8%" y1="0%" x2="100%" y2="100%"><stop offset="14.444444444444446%" stop-color="#0a0113" stop-opacity="1"></stop><stop offset="85.55555555555554%" stop-color="#150520" stop-opacity="1"></stop></linearGradient></defs><defs><linearGradient id="grad2_0" x1="0%" y1="0%" x2="56.3%" y2="100%"><stop offset="14.444444444444446%" stop-color="#2a0748" stop-opacity="1"></stop><stop offset="85.55555555555554%" stop-color="#2a0748" stop-opacity="1"></stop></linearGradient></defs><defs><linearGradient id="grad2_1" x1="0%" y1="0%" x2="56.3%" y2="100%"><stop offset="14.444444444444446%" stop-color="#210a3b" stop-opacity="1"></stop><stop offset="85.55555555555554%" stop-color="#2a0748" stop-opacity="1"></stop></linearGradient></defs><defs><linearGradient id="grad2_2" x1="0%" y1="0%" x2="56.3%" y2="100%"><stop offset="14.444444444444446%" stop-color="#210a3b" stop-opacity="1"></stop><stop offset="85.55555555555554%" stop-color="#1a092d" stop-opacity="1"></stop></linearGradient></defs><defs><linearGradient id="grad2_3" x1="0%" y1="0%" x2="56.3%" y2="100%"><stop offset="14.444444444444446%" stop-color="#150520" stop-opacity="1"></stop><stop offset="85.55555555555554%" stop-color="#1a092d" stop-opacity="1"></stop></linearGradient></defs><defs><linearGradient id="grad2_4" x1="0%" y1="0%" x2="56.3%" y2="100%"><stop offset="14.444444444444446%" stop-color="#150520" stop-opacity="1"></stop><stop offset="85.55555555555554%" stop-color="#0a0113" stop-opacity="1"></stop></linearGradient></defs><g transform="translate(960, 0)"><path d="M0 405C-62 379.7 -123.9 354.5 -187 323.9C-250.1 293.3 -314.2 257.4 -350.7 202.5C-387.3 147.6 -396.1 73.8 -405 0L0 0Z" fill="#10031a"></path><path d="M0 324C-49.6 303.8 -99.1 283.6 -149.6 259.1C-200.1 234.6 -251.4 205.9 -280.6 162C-309.8 118.1 -316.9 59.1 -324 0L0 0Z" fill="#180727"></path><path d="M0 243C-37.2 227.8 -74.4 212.7 -112.2 194.3C-150 176 -188.5 154.4 -210.4 121.5C-232.4 88.6 -237.7 44.3 -243 0L0 0Z" fill="#1e0a34"></path><path d="M0 162C-24.8 151.9 -49.6 141.8 -74.8 129.6C-100 117.3 -125.7 102.9 -140.3 81C-154.9 59.1 -158.5 29.5 -162 0L0 0Z" fill="#260941"></path><path d="M0 81C-12.4 75.9 -24.8 70.9 -37.4 64.8C-50 58.7 -62.8 51.5 -70.1 40.5C-77.5 29.5 -79.2 14.8 -81 0L0 0Z" fill="#2a0748"></path></g><g transform="translate(0, 540)"><path d="M0 -405C66 -386.7 131.9 -368.3 194.5 -336.9C257.1 -305.4 316.2 -260.8 350.7 -202.5C385.3 -144.2 395.1 -72.1 405 0L0 0Z" fill="#10031a"></path><path d="M0 -324C52.8 -309.3 105.5 -294.7 155.6 -269.5C205.7 -244.3 253 -208.7 280.6 -162C308.2 -115.3 316.1 -57.7 324 0L0 0Z" fill="#180727"></path><path d="M0 -243C39.6 -232 79.2 -221 116.7 -202.1C154.2 -183.3 189.7 -156.5 210.4 -121.5C231.2 -86.5 237.1 -43.2 243 0L0 0Z" fill="#1e0a34"></path><path d="M0 -162C26.4 -154.7 52.8 -147.3 77.8 -134.8C102.8 -122.2 126.5 -104.3 140.3 -81C154.1 -57.7 158.1 -28.8 162 0L0 0Z" fill="#260941"></path><path d="M0 -81C13.2 -77.3 26.4 -73.7 38.9 -67.4C51.4 -61.1 63.2 -52.2 70.1 -40.5C77.1 -28.8 79 -14.4 81 0L0 0Z" fill="#2a0748"></path></g></svg>