<svg id="visual" viewBox="0 0 400 960" width="400" height="960" xmlns="http://www.w3.org/2000/svg" xmlns:xlink="http://www.w3.org/1999/xlink" version="1.1"><rect x="0" y="0" width="400" height="960" fill="#0a0113"></rect><defs><linearGradient id="grad1_0" x1="0%" y1="0%" x2="100%" y2="100%"><stop offset="29.999999999999996%" stop-color="#2a0748" stop-opacity="1"></stop><stop offset="70%" stop-color="#2a0748" stop-opacity="1"></stop></linearGradient></defs><defs><linearGradient id="grad1_1" x1="0%" y1="0%" x2="100%" y2="100%"><stop offset="29.999999999999996%" stop-color="#2a0748" stop-opacity="1"></stop><stop offset="70%" stop-color="#210a3b" stop-opacity="1"></stop></linearGradient></defs><defs><linearGradient id="grad1_2" x1="0%" y1="0%" x2="100%" y2="100%"><stop offset="29.999999999999996%" stop-color="#1a092d" stop-opacity="1"></stop><stop offset="70%" stop-color="#210a3b" stop-opacity="1"></stop></linearGradient></defs><defs><linearGradient id="grad1_3" x1="0%" y1="0%" x2="100%" y2="100%"><stop offset="29.999999999999996%" stop-color="#1a092d" stop-opacity="1"></stop><stop offset="70%" stop-color="#150520" stop-opacity="1"></stop></linearGradient></defs><defs><linearGradient id="grad1_4" x1="0%" y1="0%" x2="100%" y2="100%"><stop offset="29.999999999999996%" stop-color="#0a0113" stop-opacity="1"></stop><stop offset="70%" stop-color="#150520" stop-opacity="1"></stop></linearGradient></defs><defs><linearGradient id="grad2_0" x1="0%" y1="0%" x2="100%" y2="100%"><stop offset="29.999999999999996%" stop-color="#2a0748" stop-opacity="1"></stop><stop offset="70%" stop-color="#2a0748" stop-opacity="1"></stop></linearGradient></defs><defs><linearGradient id="grad2_1" x1="0%" y1="0%" x2="100%" y2="100%"><stop offset="29.999999999999996%" stop-color="#210a3b" stop-opacity="1"></stop><stop offset="70%" stop-color="#2a0748" stop-opacity="1"></stop></linearGradient></defs><defs><linearGradient id="grad2_2" x1="0%" y1="0%" x2="100%" y2="100%"><stop offset="29.999999999999996%" stop-color="#210a3b" stop-opacity="1"></stop><stop offset="70%" stop-color="#1a092d" stop-opacity="1"></stop></linearGradient></defs><defs><linearGradient id="grad2_3" x1="0%" y1="0%" x2="100%" y2="100%"><stop offset="29.999999999999996%" stop-color="#150520" stop-opacity="1"></stop><stop offset="70%" stop-color="#1a092d" stop-opacity="1"></stop></linearGradient></defs><defs><linearGradient id="grad2_4" x1="0%" y1="0%" x2="100%" y2="100%"><stop offset="29.999999999999996%" stop-color="#150520" stop-opacity="1"></stop><stop offset="70%" stop-color="#0a0113" stop-opacity="1"></stop></linearGradient></defs><g transform="translate(400, 0)"><path d="M0 300C-43.2 276.7 -86.5 253.3 -133.5 231.2C-180.5 209.1 -231.4 188.3 -259.8 150C-288.2 111.7 -294.1 55.8 -300 0L0 0Z" fill="#10031a"></path><path d="M0 240C-34.6 221.3 -69.2 202.6 -106.8 185C-144.4 167.3 -185.1 150.7 -207.8 120C-230.6 89.3 -235.3 44.7 -240 0L0 0Z" fill="#180727"></path><path d="M0 180C-25.9 166 -51.9 152 -80.1 138.7C-108.3 125.5 -138.9 113 -155.9 90C-172.9 67 -176.5 33.5 -180 0L0 0Z" fill="#1e0a34"></path><path d="M0 120C-17.3 110.7 -34.6 101.3 -53.4 92.5C-72.2 83.7 -92.6 75.3 -103.9 60C-115.3 44.7 -117.6 22.3 -120 0L0 0Z" fill="#260941"></path><path d="M0 60C-8.6 55.3 -17.3 50.7 -26.7 46.2C-36.1 41.8 -46.3 37.7 -52 30C-57.6 22.3 -58.8 11.2 -60 0L0 0Z" fill="#2a0748"></path></g><g transform="translate(0, 960)"><path d="M0 -300C53.5 -292.8 107.1 -285.5 150 -259.8C192.9 -234.1 225.3 -189.9 248.5 -143.5C271.8 -97.1 285.9 -48.6 300 0L0 0Z" fill="#10031a"></path><path d="M0 -240C42.8 -234.2 85.6 -228.4 120 -207.8C154.4 -187.3 180.3 -151.9 198.8 -114.8C217.4 -77.7 228.7 -38.8 240 0L0 0Z" fill="#180727"></path><path d="M0 -180C32.1 -175.7 64.2 -171.3 90 -155.9C115.8 -140.5 135.2 -113.9 149.1 -86.1C163.1 -58.3 171.5 -29.1 180 0L0 0Z" fill="#1e0a34"></path><path d="M0 -120C21.4 -117.1 42.8 -114.2 60 -103.9C77.2 -93.6 90.1 -76 99.4 -57.4C108.7 -38.8 114.4 -19.4 120 0L0 0Z" fill="#260941"></path><path d="M0 -60C10.7 -58.6 21.4 -57.1 30 -52C38.6 -46.8 45.1 -38 49.7 -28.7C54.4 -19.4 57.2 -9.7 60 0L0 0Z" fill="#2a0748"></path></g></svg>